# Blender v2.74 (sub 0) OBJ File: ''
# www.blender.org
mtllib arrow.mtl
o Box
v 0.315851 1.525352 -0.052000
v 0.315851 1.525352 0.048000
v -0.184131 1.529612 -0.052000
v -0.184131 1.529612 0.048000
v 0.307331 0.525388 0.048000
v 0.307331 0.525388 -0.052000
v -0.192651 0.529648 0.048000
v -0.192651 0.529648 -0.052000
vt 0.000000 1.000000
vt 0.000000 0.000000
vt 1.000000 0.000000
vt 1.000000 1.000000
vn 0.008500 1.000000 0.000000
vn -0.008500 -1.000000 0.000000
vn 1.000000 -0.008500 0.000000
vn -1.000000 0.008500 0.000000
vn -0.000000 0.000000 -1.000000
vn -0.000000 0.000000 1.000000
usemtl Standard
s 1
f 1/1/1 3/2/1 4/3/1 2/4/1
f 5/1/2 7/2/2 8/3/2 6/4/2
f 5/1/3 6/2/3 1/3/3 2/4/3
f 8/1/4 7/2/4 4/3/4 3/4/4
f 6/1/5 8/2/5 3/3/5 1/4/5
f 2/1/6 4/2/6 7/3/6 5/4/6
o Box1
v 0.026617 0.025600 0.095700
v 0.026617 0.025600 -0.004300
v 0.526100 0.525600 -0.004300
v 0.526100 0.525600 0.095700
v -0.473900 0.525600 -0.004300
v -0.473900 0.525600 0.095700
vt 0.000000 1.000000
vt 0.000000 0.000000
vt 1.000000 0.000000
vt 1.000000 1.000000
vn 0.000000 1.000000 0.000000
vn 0.707500 -0.706700 0.000000
vn -0.706700 -0.707500 0.000000
vn 0.000000 0.000000 1.000000
vn 0.000000 0.000000 -1.000000
usemtl Standard
s 1
f 11/5/7 13/6/7 14/7/7 12/8/7
f 11/5/8 12/6/8 9/7/8 10/8/8
f 14/5/9 13/6/9 10/7/9 9/8/9
f 12/5/10 14/6/10 9/7/10
f 10/5/11 13/7/11 11/8/11
